<svg width="63" height="63" viewBox="0 0 63 63" fill="none" xmlns="http://www.w3.org/2000/svg">
<g clip-path="url(#clip0_2007_4)">
<rect width="63" height="63" fill="white"/>
<path d="M31.2991 31.3095L22.4707 22.4811L22.1483 22.1454C17.085 17.0822 8.86187 17.069 3.79865 22.1338C-1.26622 27.197 -1.26622 35.407 3.79865 40.4719C8.86187 45.5351 17.0735 45.5351 22.1383 40.4702L31.2991 31.3095Z" fill="white"/>
<path d="M31.3006 31.3005V43.7849L31.3105 44.2512C31.3105 51.4128 25.5048 57.235 18.3432 57.235C11.1816 57.235 5.37598 51.4293 5.37598 44.2677C5.37598 37.1061 11.1833 31.3005 18.3449 31.3005H31.3006Z" fill="white"/>
<path d="M31.3006 31.3005V43.7849L31.3105 44.2512C31.3105 51.4128 25.5048 57.235 18.3432 57.235C11.1816 57.235 5.37598 51.4293 5.37598 44.2677C5.37598 37.1061 11.1833 31.3005 18.3449 31.3005H31.3006Z" fill="white"/>
<path d="M31.3006 31.3005V43.7849L31.3105 44.2512C31.3105 51.4128 25.5048 57.235 18.3432 57.235C11.1816 57.235 5.37598 51.4293 5.37598 44.2677C5.37598 43.4806 5.44543 42.7101 5.57937 41.9627C10.636 45.4732 17.6322 44.9771 22.1382 40.4711L31.2989 31.3087L31.3006 31.3005Z" fill="white"/>
<path d="M18.3437 32.9469C12.0916 32.9469 7.02344 38.0151 7.02344 44.2672C7.02344 50.521 12.0916 55.5891 18.3437 55.5891C24.5959 55.5891 29.6641 50.521 29.6641 44.2672L29.6541 43.786V32.9469H18.3702H18.3437Z" fill="#A785FF"/>
<path d="M31.3014 31.299L40.1298 40.1274L40.4655 40.4498C45.5303 45.513 45.5419 53.7362 40.477 58.7994C35.4138 63.8643 27.2039 63.8643 22.139 58.7994C17.0758 53.7362 17.0758 45.5246 22.1407 40.4597L31.3014 31.299Z" fill="white"/>
<path d="M23.3026 41.6255C18.8809 46.0471 18.8809 53.2153 23.3026 57.6353C27.7242 62.0569 34.8924 62.0569 39.3124 57.6353C43.734 53.2153 43.734 46.0471 39.3124 41.6255L38.9651 41.2915L31.3008 33.6272L23.3224 41.6073L23.3026 41.6255Z" fill="#A785FF"/>
<path d="M31.2998 31.2977H43.7842L44.2505 31.2877C51.4121 31.2877 57.2343 37.0934 57.2343 44.255C57.2343 51.4166 51.4287 57.2223 44.2671 57.2223C37.1055 57.2223 31.2998 51.4149 31.2998 44.2533V31.2977Z" fill="white"/>
<path d="M32.9473 44.2551C32.9473 50.5072 38.0154 55.5754 44.2676 55.5754C50.5214 55.5754 55.5895 50.5072 55.5895 44.2551C55.5895 38.0029 50.5214 32.9348 44.2676 32.9348L43.7847 32.9447H32.9473V44.2286V44.2551Z" fill="#A785FF"/>
<path d="M31.2988 31.2972L40.1272 22.4688L40.4497 22.1331C45.5129 17.0699 53.7361 17.0567 58.7993 22.1216C63.8641 27.1848 63.8641 35.3947 58.7993 40.4596C53.7361 45.5228 45.5244 45.5228 40.4596 40.4579L31.2988 31.2972Z" fill="white"/>
<path d="M41.6252 39.2951C46.0469 43.7167 53.2151 43.7167 57.6351 39.2951C62.0567 34.8735 62.0567 27.7053 57.6351 23.2853C53.2151 18.8637 46.0469 18.8637 41.6252 23.2853L41.2912 23.6342L33.627 31.2968L41.6071 39.2769L41.6252 39.2951Z" fill="#A785FF"/>
<path d="M31.297 31.2977V18.8133L31.2871 18.347C31.2871 11.1854 37.0928 5.36318 44.2544 5.36318C51.416 5.36318 57.2216 11.1689 57.2216 18.3304C57.2216 25.492 51.4143 31.2977 44.2527 31.2977H31.297Z" fill="white"/>
<path d="M44.2549 29.6514C50.507 29.6514 55.5752 24.5833 55.5752 18.3311C55.5752 12.0773 50.507 7.00916 44.2549 7.00916C38.0027 7.00916 32.9346 12.0773 32.9346 18.3311L32.9445 18.8123V29.6514H44.2284H44.2549Z" fill="#70F2DA"/>
<path d="M31.2976 31.2991L22.4692 22.4707L22.1335 22.1483C17.0687 17.0851 17.0571 8.86188 22.122 3.79866C27.1852 -1.26621 35.3951 -1.26621 40.46 3.79866C45.5232 8.86188 45.5232 17.0735 40.4584 22.1384L31.2976 31.2991Z" fill="white"/>
<path d="M39.2948 20.9725C43.7164 16.5509 43.7164 9.38269 39.2948 4.96271C34.8732 0.541081 27.705 0.541081 23.285 4.96271C18.8633 9.38269 18.8633 16.5509 23.285 20.9725L23.6339 21.3066L31.2965 28.9708L39.2749 20.9907L39.2948 20.9725Z" fill="#A785FF"/>
<path d="M31.2978 31.3004H18.8134L18.3471 31.3103C11.1855 31.3103 5.36328 25.5046 5.36328 18.343C5.36328 11.1815 11.1689 5.37579 18.3305 5.37579C25.4921 5.37579 31.2978 11.1831 31.2978 18.3447V31.3004Z" fill="white"/>
<path d="M29.6511 18.3431C29.6511 12.091 24.5829 7.02281 18.3307 7.02281C12.077 7.02281 7.00879 12.091 7.00879 18.3431C7.00879 24.5952 12.077 29.6634 18.3307 29.6634L18.8136 29.6535H29.6511V18.3696V18.3431Z" fill="#A785FF"/>
<path d="M31.2997 31.301L0.000978179 31.3125C-0.000675386 27.9922 1.26595 24.6718 3.79922 22.1386C8.86243 17.0753 17.074 17.0753 22.1389 22.1402L31.2997 31.301Z" fill="white"/>
<path d="M20.9725 23.303L28.9708 31.3013H18.3434C12.5873 31.3013 7.70597 35.0516 6.01272 40.2421C5.64894 39.9577 5.29673 39.6485 4.96271 39.3128C0.541076 34.8928 0.541076 27.7246 4.96271 23.303C9.38269 18.8813 16.5509 18.8813 20.9725 23.303Z" fill="#A785FF"/>
<path d="M20.999 23.303L27.3305 29.6345H18.8196L18.3384 29.6444C13.1545 29.6444 8.78575 26.162 7.44141 21.408C11.7539 18.9905 17.3115 19.6156 20.9808 23.2832L20.999 23.303Z" fill="#6E33FF"/>
<path d="M29.6473 18.3407V27.2948L23.6299 21.2775L23.281 20.9435C19.6167 17.2792 18.99 11.7265 21.4009 7.41564C26.1599 8.75503 29.6473 13.1271 29.6473 18.3143V18.3407Z" fill="#6E33FF"/>
<path d="M39.3297 20.9643L32.9982 27.2958V18.7849L32.9883 18.3037C32.9883 13.1198 36.4707 8.75104 41.223 7.4067C43.6422 11.7192 43.0172 17.2768 39.3495 20.9461L39.3297 20.9643Z" fill="#6E33FF"/>
<path d="M44.248 29.6276H35.2939L41.3113 23.6103L41.6453 23.2614C45.3096 19.5971 50.8623 18.9704 55.1731 21.3813C53.8337 26.1402 49.4617 29.6276 44.2745 29.6276H44.248Z" fill="#13EAC1"/>
<path d="M41.603 39.2501L35.2715 32.9186H43.7807L44.2636 32.9087C49.4475 32.9087 53.8162 36.3911 55.1606 41.1451C50.8481 43.5626 45.2904 42.9375 41.6212 39.2699L41.603 39.2501Z" fill="#6E33FF"/>
<path d="M32.9736 44.2026V35.2485L38.991 41.2658L39.3399 41.5998C43.0042 45.2658 43.6309 50.8168 41.22 55.1277C36.4627 53.7883 32.9736 49.4162 32.9736 44.229V44.2026Z" fill="#6E33FF"/>
<path d="M23.3502 41.6326L29.6817 35.3011V43.8104L29.6916 44.2932C29.6916 49.4771 26.2092 53.8458 21.4552 55.1885C19.0377 50.8777 19.6627 45.3201 23.332 41.6508L23.3502 41.6326Z" fill="#6E33FF"/>
<path d="M18.3821 32.965H27.3362L21.3189 38.9823L20.9848 39.3312C17.3205 42.9955 11.7679 43.6239 7.45703 41.2113C8.79642 36.454 13.1684 32.965 18.3557 32.965H18.3821Z" fill="#6E33FF"/>
</g>
<defs>
<clipPath id="clip0_2007_4">
<rect width="63" height="63" fill="white"/>
</clipPath>
</defs>
</svg>
