<svg width="564" height="63" viewBox="0 0 564 63" fill="none" xmlns="http://www.w3.org/2000/svg">
<g clip-path="url(#clip0_2006_3)">
<rect width="564" height="63" fill="white"/>
<path d="M31.2991 31.3095L22.4707 22.4811L22.1483 22.1454C17.085 17.0822 8.86187 17.069 3.79865 22.1338C-1.26622 27.197 -1.26622 35.407 3.79865 40.4719C8.86187 45.5351 17.0735 45.5351 22.1383 40.4702L31.2991 31.3095Z" fill="white"/>
<path d="M31.3006 31.3005V43.7849L31.3105 44.2512C31.3105 51.4128 25.5048 57.235 18.3432 57.235C11.1816 57.235 5.37598 51.4293 5.37598 44.2677C5.37598 37.1061 11.1833 31.3005 18.3449 31.3005H31.3006Z" fill="white"/>
<path d="M31.3006 31.3005V43.7849L31.3105 44.2512C31.3105 51.4128 25.5048 57.235 18.3432 57.235C11.1816 57.235 5.37598 51.4293 5.37598 44.2677C5.37598 37.1061 11.1833 31.3005 18.3449 31.3005H31.3006Z" fill="white"/>
<path d="M31.3006 31.3005V43.7849L31.3105 44.2512C31.3105 51.4128 25.5048 57.235 18.3432 57.235C11.1816 57.235 5.37598 51.4293 5.37598 44.2677C5.37598 43.4806 5.44543 42.7101 5.57937 41.9627C10.636 45.4732 17.6322 44.9771 22.1382 40.4711L31.2989 31.3087L31.3006 31.3005Z" fill="white"/>
<path d="M18.3437 32.9469C12.0916 32.9469 7.02344 38.0151 7.02344 44.2672C7.02344 50.521 12.0916 55.5891 18.3437 55.5891C24.5959 55.5891 29.6641 50.521 29.6641 44.2672L29.6541 43.786V32.9469H18.3702H18.3437Z" fill="#A785FF"/>
<path d="M31.3014 31.299L40.1298 40.1274L40.4655 40.4498C45.5303 45.513 45.5419 53.7362 40.477 58.7994C35.4138 63.8643 27.2039 63.8643 22.139 58.7994C17.0758 53.7362 17.0758 45.5246 22.1407 40.4597L31.3014 31.299Z" fill="white"/>
<path d="M23.3026 41.6255C18.8809 46.0471 18.8809 53.2153 23.3026 57.6353C27.7242 62.0569 34.8924 62.0569 39.3124 57.6353C43.734 53.2153 43.734 46.0471 39.3124 41.6255L38.9651 41.2915L31.3008 33.6272L23.3224 41.6073L23.3026 41.6255Z" fill="#A785FF"/>
<path d="M31.2998 31.2977H43.7842L44.2505 31.2877C51.4121 31.2877 57.2343 37.0934 57.2343 44.255C57.2343 51.4166 51.4287 57.2223 44.2671 57.2223C37.1055 57.2223 31.2998 51.4149 31.2998 44.2533V31.2977Z" fill="white"/>
<path d="M32.9473 44.2551C32.9473 50.5072 38.0154 55.5754 44.2676 55.5754C50.5214 55.5754 55.5895 50.5072 55.5895 44.2551C55.5895 38.0029 50.5214 32.9348 44.2676 32.9348L43.7847 32.9447H32.9473V44.2286V44.2551Z" fill="#A785FF"/>
<path d="M31.2988 31.2972L40.1272 22.4688L40.4497 22.1331C45.5129 17.0699 53.7361 17.0567 58.7993 22.1216C63.8641 27.1848 63.8641 35.3947 58.7993 40.4596C53.7361 45.5228 45.5244 45.5228 40.4596 40.4579L31.2988 31.2972Z" fill="white"/>
<path d="M41.6252 39.2951C46.0469 43.7167 53.2151 43.7167 57.6351 39.2951C62.0567 34.8735 62.0567 27.7053 57.6351 23.2853C53.2151 18.8637 46.0469 18.8637 41.6252 23.2853L41.2912 23.6342L33.627 31.2968L41.6071 39.2769L41.6252 39.2951Z" fill="#A785FF"/>
<path d="M31.297 31.2977V18.8133L31.2871 18.347C31.2871 11.1854 37.0928 5.36318 44.2544 5.36318C51.416 5.36318 57.2216 11.1689 57.2216 18.3304C57.2216 25.492 51.4143 31.2977 44.2527 31.2977H31.297Z" fill="white"/>
<path d="M44.2549 29.6514C50.507 29.6514 55.5752 24.5832 55.5752 18.3311C55.5752 12.0773 50.507 7.00913 44.2549 7.00913C38.0027 7.00913 32.9346 12.0773 32.9346 18.3311L32.9445 18.8123V29.6514H44.2284H44.2549Z" fill="#70F2DA"/>
<path d="M31.2976 31.2991L22.4692 22.4707L22.1335 22.1483C17.0687 17.0851 17.0571 8.86188 22.122 3.79866C27.1852 -1.26621 35.3951 -1.26621 40.46 3.79866C45.5232 8.86188 45.5232 17.0735 40.4584 22.1384L31.2976 31.2991Z" fill="white"/>
<path d="M39.2948 20.9725C43.7164 16.5509 43.7164 9.38269 39.2948 4.96271C34.8732 0.541081 27.705 0.541081 23.285 4.96271C18.8633 9.38269 18.8633 16.5509 23.285 20.9725L23.6339 21.3066L31.2965 28.9708L39.2749 20.9907L39.2948 20.9725Z" fill="#A785FF"/>
<path d="M31.2978 31.3004H18.8134L18.3471 31.3103C11.1855 31.3103 5.36328 25.5046 5.36328 18.343C5.36328 11.1815 11.1689 5.37579 18.3305 5.37579C25.4921 5.37579 31.2978 11.1831 31.2978 18.3447V31.3004Z" fill="white"/>
<path d="M29.6511 18.3431C29.6511 12.091 24.5829 7.02281 18.3307 7.02281C12.077 7.02281 7.00879 12.091 7.00879 18.3431C7.00879 24.5952 12.077 29.6634 18.3307 29.6634L18.8136 29.6535H29.6511V18.3696V18.3431Z" fill="#A785FF"/>
<path d="M31.2997 31.301L0.000978179 31.3125C-0.000675386 27.9922 1.26595 24.6718 3.79922 22.1386C8.86243 17.0753 17.074 17.0753 22.1389 22.1402L31.2997 31.301Z" fill="white"/>
<path d="M20.9725 23.303L28.9708 31.3013H18.3434C12.5873 31.3013 7.70597 35.0516 6.01272 40.2421C5.64894 39.9577 5.29673 39.6485 4.96271 39.3128C0.541076 34.8928 0.541076 27.7246 4.96271 23.303C9.38269 18.8813 16.5509 18.8813 20.9725 23.303Z" fill="#A785FF"/>
<path d="M20.999 23.303L27.3305 29.6345H18.8196L18.3384 29.6444C13.1545 29.6444 8.78575 26.162 7.44141 21.408C11.7539 18.9905 17.3115 19.6156 20.9808 23.2832L20.999 23.303Z" fill="#6E33FF"/>
<path d="M29.6473 18.3407V27.2948L23.6299 21.2775L23.281 20.9435C19.6167 17.2792 18.99 11.7265 21.4009 7.41564C26.1599 8.75503 29.6473 13.1271 29.6473 18.3143V18.3407Z" fill="#6E33FF"/>
<path d="M39.3297 20.9643L32.9982 27.2958V18.7849L32.9883 18.3037C32.9883 13.1198 36.4707 8.75104 41.223 7.4067C43.6422 11.7192 43.0172 17.2768 39.3495 20.9461L39.3297 20.9643Z" fill="#6E33FF"/>
<path d="M44.248 29.6276H35.2939L41.3113 23.6103L41.6453 23.2614C45.3096 19.5971 50.8623 18.9704 55.1731 21.3813C53.8337 26.1402 49.4617 29.6276 44.2745 29.6276H44.248Z" fill="#13EAC1"/>
<path d="M41.603 39.2501L35.2715 32.9186H43.7807L44.2636 32.9087C49.4475 32.9087 53.8162 36.3911 55.1606 41.1451C50.8481 43.5626 45.2904 42.9375 41.6212 39.2699L41.603 39.2501Z" fill="#6E33FF"/>
<path d="M32.9736 44.2026V35.2485L38.991 41.2658L39.3399 41.5998C43.0042 45.2658 43.6309 50.8168 41.22 55.1277C36.4627 53.7883 32.9736 49.4162 32.9736 44.229V44.2026Z" fill="#6E33FF"/>
<path d="M23.3502 41.6326L29.6817 35.3011V43.8104L29.6916 44.2932C29.6916 49.4771 26.2092 53.8458 21.4552 55.1885C19.0377 50.8777 19.6627 45.3201 23.332 41.6508L23.3502 41.6326Z" fill="#6E33FF"/>
<path d="M18.3821 32.965H27.3362L21.3189 38.9823L20.9848 39.3312C17.3205 42.9955 11.7679 43.6239 7.45703 41.2113C8.79642 36.454 13.1684 32.965 18.3557 32.965H18.3821Z" fill="#6E33FF"/>
<path d="M85.1886 42.2081H78.5977L88.6403 13.1172H96.5664L106.595 42.2081H100.004L92.717 19.765H92.4897L85.1886 42.2081ZM84.7766 30.7735H100.345V35.5746H84.7766V30.7735Z" fill="#6E33FF"/>
<path d="M116.034 13.1172V42.2081H109.983V13.1172H116.034Z" fill="#6E33FF"/>
<path d="M132.614 20.39V24.9354H119.148V20.39H132.614ZM122.23 42.2081V18.8132C122.23 17.2318 122.538 15.9203 123.154 14.8786C123.779 13.8369 124.631 13.0557 125.711 12.5348C126.79 12.014 128.016 11.7536 129.39 11.7536C130.318 11.7536 131.165 11.8246 131.932 11.9667C132.709 12.1087 133.286 12.2365 133.665 12.3502L132.586 16.8956C132.349 16.8199 132.055 16.7489 131.705 16.6826C131.364 16.6163 131.014 16.5831 130.654 16.5831C129.764 16.5831 129.143 16.7915 128.793 17.2081C128.443 17.6153 128.267 18.1882 128.267 18.9269V42.2081H122.23Z" fill="#6E33FF"/>
<path d="M136.311 42.2081V20.39H142.177V24.1968H142.404C142.802 22.8426 143.47 21.8199 144.407 21.1286C145.345 20.4278 146.424 20.0775 147.646 20.0775C147.949 20.0775 148.276 20.0964 148.626 20.1343C148.976 20.1721 149.284 20.2242 149.549 20.2905V25.6598C149.265 25.5746 148.872 25.4989 148.37 25.4326C147.868 25.3663 147.409 25.3331 146.993 25.3331C146.102 25.3331 145.307 25.5273 144.606 25.9155C143.915 26.2943 143.366 26.8246 142.958 27.5064C142.561 28.1882 142.362 28.9742 142.362 29.8644V42.2081H136.311Z" fill="#6E33FF"/>
<path d="M161.605 42.6343C159.361 42.6343 157.429 42.1797 155.81 41.2706C154.2 40.3521 152.96 39.0547 152.088 37.3786C151.217 35.693 150.782 33.6996 150.782 31.3985C150.782 29.1542 151.217 27.1845 152.088 25.4894C152.96 23.7943 154.186 22.4733 155.767 21.5263C157.358 20.5793 159.224 20.1059 161.364 20.1059C162.803 20.1059 164.143 20.3379 165.384 20.8019C166.634 21.2564 167.723 21.943 168.651 22.8615C169.588 23.7801 170.318 24.9354 170.838 26.3275C171.359 27.71 171.62 29.3293 171.62 31.1854V32.8473H153.196V29.0973H165.924C165.924 28.2261 165.734 27.4543 165.355 26.782C164.977 26.1096 164.451 25.5841 163.779 25.2053C163.116 24.817 162.344 24.6229 161.463 24.6229C160.545 24.6229 159.73 24.836 159.02 25.2621C158.319 25.6788 157.77 26.2422 157.373 26.9525C156.975 27.6532 156.771 28.4345 156.762 29.2962V32.8615C156.762 33.9411 156.961 34.8739 157.358 35.6598C157.766 36.4458 158.338 37.0519 159.077 37.478C159.816 37.9042 160.692 38.1172 161.705 38.1172C162.377 38.1172 162.993 38.0225 163.551 37.8331C164.11 37.6437 164.588 37.3596 164.986 36.9809C165.384 36.6021 165.687 36.1381 165.895 35.5888L171.492 35.9581C171.208 37.3028 170.625 38.4771 169.745 39.4809C168.873 40.4752 167.747 41.2517 166.364 41.8104C164.991 42.3596 163.405 42.6343 161.605 42.6343Z" fill="#6E33FF"/>
<path d="M193.722 26.6115L188.182 26.9525C188.087 26.479 187.884 26.0528 187.571 25.674C187.259 25.2858 186.847 24.978 186.336 24.7507C185.834 24.514 185.232 24.3956 184.532 24.3956C183.594 24.3956 182.803 24.5945 182.159 24.9922C181.516 25.3805 181.194 25.9013 181.194 26.5547C181.194 27.0756 181.402 27.5159 181.819 27.8757C182.235 28.2356 182.95 28.5244 183.963 28.7422L187.912 29.5377C190.033 29.9733 191.615 30.674 192.657 31.6399C193.698 32.6059 194.219 33.8748 194.219 35.4468C194.219 36.8767 193.798 38.1314 192.955 39.211C192.122 40.2905 190.976 41.1333 189.517 41.7394C188.069 42.336 186.397 42.6343 184.503 42.6343C181.615 42.6343 179.314 42.0329 177.6 40.8303C175.895 39.6182 174.896 37.9704 174.603 35.8871L180.554 35.5746C180.734 36.4553 181.17 37.1276 181.861 37.5917C182.552 38.0462 183.438 38.2735 184.517 38.2735C185.578 38.2735 186.43 38.0699 187.074 37.6627C187.728 37.246 188.059 36.711 188.069 36.0576C188.059 35.5083 187.827 35.0585 187.373 34.7081C186.918 34.3483 186.217 34.0737 185.27 33.8843L181.492 33.1314C179.361 32.7053 177.775 31.9667 176.733 30.9155C175.701 29.8644 175.185 28.5244 175.185 26.8956C175.185 25.4941 175.564 24.2867 176.321 23.2735C177.088 22.2602 178.163 21.479 179.546 20.9297C180.938 20.3805 182.567 20.1059 184.432 20.1059C187.188 20.1059 189.356 20.6882 190.938 21.853C192.529 23.0178 193.457 24.604 193.722 26.6115Z" fill="#6E33FF"/>
<path d="M207.887 42.6343C205.653 42.6343 203.73 42.1608 202.12 41.2138C200.52 40.2574 199.289 38.9316 198.427 37.2365C197.575 35.5415 197.149 33.5907 197.149 31.3843C197.149 29.1494 197.58 27.1892 198.441 25.5036C199.313 23.8085 200.548 22.4875 202.149 21.5405C203.749 20.5841 205.653 20.1059 207.859 20.1059C209.762 20.1059 211.429 20.4515 212.859 21.1428C214.289 21.8341 215.421 22.8047 216.254 24.0547C217.087 25.3047 217.547 26.7725 217.632 28.4581H211.922C211.761 27.3691 211.334 26.4932 210.643 25.8303C209.961 25.1579 209.066 24.8218 207.958 24.8218C207.021 24.8218 206.202 25.0775 205.501 25.5888C204.81 26.0907 204.27 26.8246 203.882 27.7905C203.493 28.7564 203.299 29.9259 203.299 31.299C203.299 32.6911 203.489 33.8748 203.868 34.8502C204.256 35.8256 204.8 36.5689 205.501 37.0803C206.202 37.5917 207.021 37.8473 207.958 37.8473C208.65 37.8473 209.27 37.7053 209.819 37.4212C210.378 37.1371 210.837 36.7252 211.197 36.1854C211.566 35.6362 211.808 34.978 211.922 34.211H217.632C217.537 35.8776 217.083 37.3454 216.268 38.6144C215.463 39.8739 214.35 40.8587 212.93 41.5689C211.51 42.2792 209.829 42.6343 207.887 42.6343Z" fill="#6E33FF"/>
<path d="M231.364 42.6343C229.158 42.6343 227.249 42.1655 225.64 41.228C224.039 40.281 222.803 38.9648 221.932 37.2792C221.061 35.5841 220.625 33.6191 220.625 31.3843C220.625 29.1305 221.061 27.1608 221.932 25.4752C222.803 23.7801 224.039 22.4638 225.64 21.5263C227.249 20.5793 229.158 20.1059 231.364 20.1059C233.57 20.1059 235.474 20.5793 237.074 21.5263C238.684 22.4638 239.925 23.7801 240.796 25.4752C241.667 27.1608 242.103 29.1305 242.103 31.3843C242.103 33.6191 241.667 35.5841 240.796 37.2792C239.925 38.9648 238.684 40.281 237.074 41.228C235.474 42.1655 233.57 42.6343 231.364 42.6343ZM231.392 37.9468C232.396 37.9468 233.234 37.6627 233.907 37.0945C234.579 36.5168 235.086 35.7309 235.426 34.7365C235.777 33.7422 235.952 32.6106 235.952 31.3417C235.952 30.0727 235.777 28.9411 235.426 27.9468C235.086 26.9525 234.579 26.1665 233.907 25.5888C233.234 25.0112 232.396 24.7223 231.392 24.7223C230.379 24.7223 229.527 25.0112 228.836 25.5888C228.154 26.1665 227.638 26.9525 227.287 27.9468C226.946 28.9411 226.776 30.0727 226.776 31.3417C226.776 32.6106 226.946 33.7422 227.287 34.7365C227.638 35.7309 228.154 36.5168 228.836 37.0945C229.527 37.6627 230.379 37.9468 231.392 37.9468Z" fill="#6E33FF"/>
<path d="M260.423 42.2081H253.832L263.875 13.1172H271.801L281.829 42.2081H275.238L267.951 19.765H267.724L260.423 42.2081ZM260.011 30.7735H275.579V35.5746H260.011V30.7735Z" fill="#6E33FF"/>
<path d="M292.241 42.5632C290.584 42.5632 289.083 42.1371 287.738 41.2848C286.403 40.4231 285.342 39.1589 284.556 37.4922C283.78 35.8161 283.392 33.7612 283.392 31.3274C283.392 28.8274 283.794 26.7489 284.599 25.0917C285.404 23.425 286.474 22.1797 287.809 21.3559C289.154 20.5225 290.627 20.1059 292.227 20.1059C293.449 20.1059 294.467 20.3142 295.281 20.7309C296.105 21.1381 296.768 21.6494 297.27 22.265C297.781 22.871 298.169 23.4676 298.434 24.0547H298.619V13.1172H304.656V42.2081H298.69V38.7138H298.434C298.15 39.3199 297.748 39.9212 297.227 40.5178C296.716 41.1049 296.048 41.5926 295.224 41.9809C294.41 42.3691 293.415 42.5632 292.241 42.5632ZM294.159 37.7479C295.134 37.7479 295.958 37.4828 296.63 36.9525C297.312 36.4127 297.833 35.6598 298.193 34.6939C298.562 33.728 298.747 32.5964 298.747 31.299C298.747 30.0017 298.567 28.8748 298.207 27.9184C297.847 26.9619 297.326 26.2233 296.645 25.7025C295.963 25.1816 295.134 24.9212 294.159 24.9212C293.164 24.9212 292.326 25.1911 291.645 25.7309C290.963 26.2706 290.447 27.0187 290.096 27.9752C289.746 28.9316 289.571 30.0396 289.571 31.299C289.571 32.568 289.746 33.6901 290.096 34.6655C290.456 35.6314 290.972 36.389 291.645 36.9382C292.326 37.478 293.164 37.7479 294.159 37.7479Z" fill="#6E33FF"/>
<path d="M317.671 42.5632C316.014 42.5632 314.513 42.1371 313.168 41.2848C311.833 40.4231 310.772 39.1589 309.986 37.4922C309.21 35.8161 308.821 33.7612 308.821 31.3274C308.821 28.8274 309.224 26.7489 310.029 25.0917C310.834 23.425 311.904 22.1797 313.239 21.3559C314.584 20.5225 316.056 20.1059 317.657 20.1059C318.878 20.1059 319.896 20.3142 320.711 20.7309C321.534 21.1381 322.197 21.6494 322.699 22.265C323.211 22.871 323.599 23.4676 323.864 24.0547H324.049V13.1172H330.086V42.2081H324.12V38.7138H323.864C323.58 39.3199 323.177 39.9212 322.657 40.5178C322.145 41.1049 321.478 41.5926 320.654 41.9809C319.839 42.3691 318.845 42.5632 317.671 42.5632ZM319.588 37.7479C320.564 37.7479 321.388 37.4828 322.06 36.9525C322.742 36.4127 323.263 35.6598 323.623 34.6939C323.992 33.728 324.176 32.5964 324.176 31.299C324.176 30.0017 323.997 28.8748 323.637 27.9184C323.277 26.9619 322.756 26.2233 322.074 25.7025C321.392 25.1816 320.564 24.9212 319.588 24.9212C318.594 24.9212 317.756 25.1911 317.074 25.7309C316.392 26.2706 315.876 27.0187 315.526 27.9752C315.176 28.9316 315 30.0396 315 31.299C315 32.568 315.176 33.6901 315.526 34.6655C315.886 35.6314 316.402 36.389 317.074 36.9382C317.756 37.478 318.594 37.7479 319.588 37.7479Z" fill="#6E33FF"/>
<path d="M344.919 42.6343C342.712 42.6343 340.804 42.1655 339.194 41.228C337.594 40.281 336.358 38.9648 335.487 37.2792C334.616 35.5841 334.18 33.6191 334.18 31.3843C334.18 29.1305 334.616 27.1608 335.487 25.4752C336.358 23.7801 337.594 22.4638 339.194 21.5263C340.804 20.5793 342.712 20.1059 344.919 20.1059C347.125 20.1059 349.029 20.5793 350.629 21.5263C352.239 22.4638 353.479 23.7801 354.35 25.4752C355.222 27.1608 355.657 29.1305 355.657 31.3843C355.657 33.6191 355.222 35.5841 354.35 37.2792C353.479 38.9648 352.239 40.281 350.629 41.228C349.029 42.1655 347.125 42.6343 344.919 42.6343ZM344.947 37.9468C345.951 37.9468 346.789 37.6627 347.461 37.0945C348.134 36.5168 348.64 35.7309 348.981 34.7365C349.332 33.7422 349.507 32.6106 349.507 31.3417C349.507 30.0727 349.332 28.9411 348.981 27.9468C348.64 26.9525 348.134 26.1665 347.461 25.5888C346.789 25.0112 345.951 24.7223 344.947 24.7223C343.934 24.7223 343.082 25.0112 342.39 25.5888C341.708 26.1665 341.192 26.9525 340.842 27.9468C340.501 28.9411 340.331 30.0727 340.331 31.3417C340.331 32.6106 340.501 33.7422 340.842 34.7365C341.192 35.7309 341.708 36.5168 342.39 37.0945C343.082 37.6627 343.934 37.9468 344.947 37.9468Z" fill="#6E33FF"/>
<path d="M365.643 29.5945V42.2081H359.592V20.39H365.359V24.2394H365.615C366.098 22.9704 366.907 21.9667 368.044 21.228C369.18 20.4799 370.558 20.1059 372.177 20.1059C373.692 20.1059 375.013 20.4373 376.14 21.1002C377.267 21.7631 378.143 22.71 378.768 23.9411C379.393 25.1627 379.706 26.621 379.706 28.3161V42.2081H373.654V29.3956C373.664 28.0604 373.323 27.0187 372.632 26.2706C371.94 25.5131 370.989 25.1343 369.777 25.1343C368.962 25.1343 368.243 25.3095 367.618 25.6598C367.002 26.0102 366.519 26.5216 366.169 27.1939C365.828 27.8568 365.653 28.657 365.643 29.5945Z" fill="#6E33FF"/>
<path d="M402.628 26.6115L397.088 26.9525C396.994 26.479 396.79 26.0528 396.478 25.674C396.165 25.2858 395.753 24.978 395.242 24.7507C394.74 24.514 394.139 24.3956 393.438 24.3956C392.5 24.3956 391.71 24.5945 391.066 24.9922C390.422 25.3805 390.1 25.9013 390.1 26.5547C390.1 27.0756 390.308 27.5159 390.725 27.8757C391.141 28.2356 391.856 28.5244 392.87 28.7422L396.819 29.5377C398.94 29.9733 400.521 30.674 401.563 31.6399C402.605 32.6059 403.125 33.8748 403.125 35.4468C403.125 36.8767 402.704 38.1314 401.861 39.211C401.028 40.2905 399.882 41.1333 398.424 41.7394C396.975 42.336 395.303 42.6343 393.409 42.6343C390.521 42.6343 388.22 42.0329 386.506 40.8303C384.801 39.6182 383.802 37.9704 383.509 35.8871L389.461 35.5746C389.64 36.4553 390.076 37.1276 390.767 37.5917C391.459 38.0462 392.344 38.2735 393.424 38.2735C394.484 38.2735 395.337 38.0699 395.98 37.6627C396.634 37.246 396.965 36.711 396.975 36.0576C396.965 35.5083 396.733 35.0585 396.279 34.7081C395.824 34.3483 395.123 34.0737 394.176 33.8843L390.398 33.1314C388.267 32.7053 386.681 31.9667 385.64 30.9155C384.607 29.8644 384.091 28.5244 384.091 26.8956C384.091 25.4941 384.47 24.2867 385.228 23.2735C385.995 22.2602 387.069 21.479 388.452 20.9297C389.844 20.3805 391.473 20.1059 393.338 20.1059C396.094 20.1059 398.263 20.6882 399.844 21.853C401.435 23.0178 402.363 24.604 402.628 26.6115Z" fill="#6E33FF"/>
<path d="M441.975 23.3019H435.753C435.64 22.497 435.408 21.782 435.057 21.157C434.707 20.5225 434.257 19.9828 433.708 19.5377C433.158 19.0926 432.524 18.7517 431.804 18.515C431.094 18.2782 430.322 18.1598 429.489 18.1598C427.983 18.1598 426.672 18.5339 425.554 19.282C424.437 20.0206 423.57 21.1002 422.955 22.5206C422.339 23.9316 422.032 25.6456 422.032 27.6627C422.032 29.7365 422.339 31.479 422.955 32.89C423.58 34.3009 424.451 35.3663 425.569 36.086C426.686 36.8057 427.979 37.1655 429.446 37.1655C430.27 37.1655 431.033 37.0566 431.733 36.8388C432.444 36.621 433.073 36.3038 433.623 35.8871C434.172 35.461 434.626 34.9449 434.986 34.3388C435.355 33.7328 435.611 33.0415 435.753 32.265L441.975 32.2934C441.814 33.6286 441.411 34.9165 440.767 36.157C440.133 37.3881 439.276 38.4913 438.196 39.4667C437.126 40.4326 435.848 41.1996 434.361 41.7678C432.884 42.3265 431.212 42.6059 429.347 42.6059C426.752 42.6059 424.432 42.0187 422.387 40.8445C420.351 39.6703 418.741 37.9704 417.557 35.7451C416.383 33.5197 415.796 30.8256 415.796 27.6627C415.796 24.4903 416.392 21.7915 417.586 19.5661C418.779 17.3407 420.398 15.6456 422.444 14.4809C424.489 13.3066 426.79 12.7195 429.347 12.7195C431.033 12.7195 432.595 12.9562 434.034 13.4297C435.483 13.9032 436.766 14.5945 437.884 15.5036C439.001 16.4032 439.91 17.5064 440.611 18.8132C441.321 20.1201 441.776 21.6163 441.975 23.3019Z" fill="#6E33FF"/>
<path d="M452.493 42.6201C451.101 42.6201 449.861 42.3786 448.772 41.8956C447.683 41.4032 446.821 40.6788 446.186 39.7223C445.561 38.7564 445.249 37.5538 445.249 36.1144C445.249 34.9023 445.471 33.8843 445.917 33.0604C446.362 32.2365 446.968 31.5737 447.735 31.0718C448.502 30.5699 449.373 30.1911 450.348 29.9354C451.333 29.6797 452.365 29.4998 453.445 29.3956C454.714 29.2631 455.737 29.14 456.513 29.0263C457.29 28.9032 457.853 28.7233 458.203 28.4865C458.554 28.2498 458.729 27.8994 458.729 27.4354V27.3502C458.729 26.4506 458.445 25.7545 457.877 25.2621C457.318 24.7697 456.523 24.5235 455.49 24.5235C454.401 24.5235 453.535 24.765 452.891 25.2479C452.247 25.7214 451.821 26.318 451.613 27.0377L446.016 26.5831C446.3 25.2574 446.859 24.1115 447.692 23.1456C448.525 22.1703 449.6 21.4221 450.917 20.9013C452.242 20.371 453.776 20.1059 455.519 20.1059C456.731 20.1059 457.891 20.2479 458.999 20.532C460.116 20.8161 461.106 21.2564 461.968 21.853C462.839 22.4496 463.525 23.2167 464.027 24.1542C464.529 25.0822 464.78 26.1949 464.78 27.4922V42.2081H459.042V39.1826H458.871C458.521 39.8644 458.052 40.4657 457.465 40.9865C456.878 41.4979 456.172 41.9004 455.348 42.1939C454.524 42.478 453.573 42.6201 452.493 42.6201ZM454.226 38.4439C455.116 38.4439 455.902 38.2687 456.584 37.9184C457.266 37.5585 457.801 37.0756 458.189 36.4695C458.578 35.8634 458.772 35.1769 458.772 34.4098V32.0945C458.582 32.2176 458.322 32.3312 457.99 32.4354C457.668 32.5301 457.304 32.6201 456.897 32.7053C456.489 32.781 456.082 32.8521 455.675 32.9184C455.268 32.9752 454.899 33.0273 454.567 33.0746C453.857 33.1788 453.237 33.3445 452.706 33.5718C452.176 33.799 451.764 34.1068 451.471 34.4951C451.177 34.8739 451.03 35.3473 451.03 35.9155C451.03 36.7394 451.328 37.3691 451.925 37.8047C452.531 38.2309 453.298 38.4439 454.226 38.4439Z" fill="#6E33FF"/>
<path d="M481.08 20.39V24.9354H467.941V20.39H481.08ZM470.924 15.1627H476.975V35.5036C476.975 36.0623 477.06 36.4979 477.23 36.8104C477.401 37.1134 477.638 37.3265 477.941 37.4496C478.253 37.5727 478.613 37.6343 479.02 37.6343C479.304 37.6343 479.588 37.6106 479.873 37.5632C480.157 37.5064 480.374 37.4638 480.526 37.4354L481.478 41.9382C481.175 42.0329 480.748 42.1418 480.199 42.265C479.65 42.3975 478.982 42.478 478.196 42.5064C476.738 42.5632 475.46 42.3691 474.361 41.924C473.272 41.479 472.425 40.7877 471.819 39.8502C471.212 38.9127 470.914 37.729 470.924 36.299V15.1627Z" fill="#6E33FF"/>
<path d="M491.243 42.6201C489.851 42.6201 488.611 42.3786 487.522 41.8956C486.433 41.4032 485.571 40.6788 484.936 39.7223C484.311 38.7564 483.999 37.5538 483.999 36.1144C483.999 34.9023 484.221 33.8843 484.667 33.0604C485.112 32.2365 485.718 31.5737 486.485 31.0718C487.252 30.5699 488.123 30.1911 489.098 29.9354C490.083 29.6797 491.115 29.4998 492.195 29.3956C493.464 29.2631 494.487 29.14 495.263 29.0263C496.04 28.9032 496.603 28.7233 496.953 28.4865C497.304 28.2498 497.479 27.8994 497.479 27.4354V27.3502C497.479 26.4506 497.195 25.7545 496.627 25.2621C496.068 24.7697 495.273 24.5235 494.24 24.5235C493.151 24.5235 492.285 24.765 491.641 25.2479C490.997 25.7214 490.571 26.318 490.363 27.0377L484.766 26.5831C485.05 25.2574 485.609 24.1115 486.442 23.1456C487.275 22.1703 488.35 21.4221 489.667 20.9013C490.992 20.371 492.526 20.1059 494.269 20.1059C495.481 20.1059 496.641 20.2479 497.749 20.532C498.866 20.8161 499.856 21.2564 500.718 21.853C501.589 22.4496 502.275 23.2167 502.777 24.1542C503.279 25.0822 503.53 26.1949 503.53 27.4922V42.2081H497.792V39.1826H497.621C497.271 39.8644 496.802 40.4657 496.215 40.9865C495.628 41.4979 494.922 41.9004 494.098 42.1939C493.274 42.478 492.323 42.6201 491.243 42.6201ZM492.976 38.4439C493.866 38.4439 494.652 38.2687 495.334 37.9184C496.016 37.5585 496.551 37.0756 496.939 36.4695C497.328 35.8634 497.522 35.1769 497.522 34.4098V32.0945C497.332 32.2176 497.072 32.3312 496.74 32.4354C496.418 32.5301 496.054 32.6201 495.647 32.7053C495.239 32.781 494.832 32.8521 494.425 32.9184C494.018 32.9752 493.649 33.0273 493.317 33.0746C492.607 33.1788 491.987 33.3445 491.456 33.5718C490.926 33.799 490.514 34.1068 490.221 34.4951C489.927 34.8739 489.78 35.3473 489.78 35.9155C489.78 36.7394 490.078 37.3691 490.675 37.8047C491.281 38.2309 492.048 38.4439 492.976 38.4439Z" fill="#6E33FF"/>
<path d="M514.276 13.1172V42.2081H508.225V13.1172H514.276Z" fill="#6E33FF"/>
<path d="M528.981 42.6343C526.775 42.6343 524.867 42.1655 523.257 41.228C521.656 40.281 520.421 38.9648 519.549 37.2792C518.678 35.5841 518.243 33.6191 518.243 31.3843C518.243 29.1305 518.678 27.1608 519.549 25.4752C520.421 23.7801 521.656 22.4638 523.257 21.5263C524.867 20.5793 526.775 20.1059 528.981 20.1059C531.188 20.1059 533.091 20.5793 534.691 21.5263C536.301 22.4638 537.542 23.7801 538.413 25.4752C539.284 27.1608 539.72 29.1305 539.72 31.3843C539.72 33.6191 539.284 35.5841 538.413 37.2792C537.542 38.9648 536.301 40.281 534.691 41.228C533.091 42.1655 531.188 42.6343 528.981 42.6343ZM529.01 37.9468C530.013 37.9468 530.851 37.6627 531.524 37.0945C532.196 36.5168 532.703 35.7309 533.044 34.7365C533.394 33.7422 533.569 32.6106 533.569 31.3417C533.569 30.0727 533.394 28.9411 533.044 27.9468C532.703 26.9525 532.196 26.1665 531.524 25.5888C530.851 25.0112 530.013 24.7223 529.01 24.7223C527.996 24.7223 527.144 25.0112 526.453 25.5888C525.771 26.1665 525.255 26.9525 524.904 27.9468C524.564 28.9411 524.393 30.0727 524.393 31.3417C524.393 32.6106 524.564 33.7422 524.904 34.7365C525.255 35.7309 525.771 36.5168 526.453 37.0945C527.144 37.6627 527.996 37.9468 529.01 37.9468Z" fill="#6E33FF"/>
<path d="M553.484 50.8445C551.524 50.8445 549.843 50.5746 548.441 50.0348C547.049 49.5045 545.941 48.7801 545.118 47.8615C544.294 46.943 543.759 45.9108 543.512 44.7649L549.109 44.0121C549.279 44.4477 549.549 44.8549 549.919 45.2337C550.288 45.6125 550.776 45.9155 551.382 46.1428C551.997 46.3795 552.745 46.4979 553.626 46.4979C554.942 46.4979 556.027 46.1759 556.879 45.532C557.741 44.8975 558.172 43.8322 558.172 42.336V38.3445H557.916C557.651 38.9506 557.253 39.5235 556.723 40.0632C556.192 40.603 555.511 41.0434 554.677 41.3843C553.844 41.7252 552.85 41.8956 551.694 41.8956C550.056 41.8956 548.565 41.5168 547.22 40.7593C545.885 39.9922 544.819 38.8227 544.024 37.2507C543.238 35.6693 542.845 33.6712 542.845 31.2564C542.845 28.7848 543.247 26.7204 544.052 25.0632C544.857 23.406 545.927 22.1655 547.262 21.3417C548.607 20.5178 550.08 20.1059 551.68 20.1059C552.902 20.1059 553.924 20.3142 554.748 20.7309C555.572 21.1381 556.235 21.6494 556.737 22.265C557.248 22.871 557.641 23.4676 557.916 24.0547H558.143V20.39H564.152V42.4212C564.152 44.2773 563.697 45.8303 562.788 47.0803C561.879 48.3303 560.619 49.2678 559.01 49.8928C557.409 50.5273 555.567 50.8445 553.484 50.8445ZM553.612 37.3502C554.587 37.3502 555.411 37.1087 556.083 36.6257C556.765 36.1333 557.286 35.4326 557.646 34.5235C558.015 33.6049 558.2 32.5064 558.2 31.228C558.2 29.9496 558.02 28.8417 557.66 27.9042C557.3 26.9572 556.779 26.2233 556.098 25.7025C555.416 25.1816 554.587 24.9212 553.612 24.9212C552.618 24.9212 551.779 25.1911 551.098 25.7309C550.416 26.2612 549.9 26.9998 549.549 27.9468C549.199 28.8937 549.024 29.9875 549.024 31.228C549.024 32.4875 549.199 33.5765 549.549 34.4951C549.909 35.4042 550.425 36.1096 551.098 36.6115C551.779 37.104 552.618 37.3502 553.612 37.3502Z" fill="#6E33FF"/>
</g>
<defs>
<clipPath id="clip0_2006_3">
<rect width="564" height="63" fill="white"/>
</clipPath>
</defs>
</svg>
